<svg width="93" height="141" fill="none" xmlns="http://www.w3.org/2000/svg"><path d="M92.159 65.302c-.194-1.929-1.301-3.765-3.04-5.04a9.95 9.95 0 0 0-3.388-1.58c-.64-.166-1.31-.278-1.984-.332-1.452-.112-2.963-.077-4.426-.043-.643.015-1.31.03-1.959.034-1.228.005-8.244.45-13.368.774-3.542.226-6.655.306-6.655.306l.276 2.727 17.769-1.218-.583.6a8.563 8.563 0 0 0-1.176 1.53c-.78 1.309-1.125 2.754-.978 4.203.438 4.359 5.171 7.466 10.551 6.926 2.617-.262 4.994-1.34 6.688-3.034 1.677-1.675 2.484-3.754 2.273-5.853Zm-2.448.246c.116 1.147-.168 2.261-.755 3.243-1.111 1.86-3.31 3.251-5.948 3.517-4.03.404-7.579-1.968-7.913-5.291-.163-1.622.454-3.22 1.734-4.5 1.264-1.26 3.028-2.063 4.968-2.258 4.03-.406 7.58 1.967 7.914 5.29ZM51.076 56.831l-14.063 6.73-17.547 1.203 2.226-3.697 29.384-4.236Z" fill="#4F4F4F"/><path d="M61.894 108.605c0 16.283-13.2 29.483-29.483 29.483s-29.483-13.2-29.483-29.483 13.2-29.483 29.483-29.483 29.483 13.2 29.483 29.483Z" stroke="#3E356A" stroke-width="4" stroke-miterlimit="10" stroke-linecap="round" stroke-linejoin="round"/><path d="M32.411 79.908a.786.786 0 0 1-.786-.786V47.606a.786.786 0 0 1 1.572 0v31.516a.786.786 0 0 1-.786.786Z" fill="#3E356A"/><path d="M22.443 4.395a18.917 18.917 0 0 1 1.907.21 12.717 12.717 0 0 1 3.048-.496c.292-.254.595-.498.909-.737-1.957-.206-3.987.166-5.864 1.023Zm19.378.594c.225.046.45.099.671.158a4.901 4.901 0 0 0-.53-1.09c-.998-1.54-3.05-2.512-5.205-2.484-1.474.02-3.007.438-4.654 1.27a11.404 11.404 0 0 1 2.92 2.005 15.677 15.677 0 0 1 6.797.14Zm-12.072-.727c1.12.201 2.227.59 3.26 1.14l.186-.063a9.845 9.845 0 0 0-2.809-1.508c-.216.141-.43.285-.637.431ZM28.255 5.68c.721.287 1.415.618 2.078.99.246-.15.496-.291.75-.425a9.138 9.138 0 0 0-2.828-.565ZM36.72 6.9c.136.213.263.432.382.654a13.505 13.505 0 0 1 2.411-1.202 8.764 8.764 0 0 0-2.793.548Zm4.36.61c.556.06 1.11.152 1.659.275.017-.164.03-.327.036-.49a7.27 7.27 0 0 0-1.696.215Zm-14.727-.056c.8.047 1.593.161 2.37.34l.15-.12a16.215 16.215 0 0 0-2.01-.834c-.178.202-.348.406-.51.614Zm5.485.17c.114.081.227.164.339.249.264-.231.537-.455.82-.67a16.531 16.531 0 0 0-.112-.07 12.759 12.759 0 0 0-1.047.49Zm-7.397-1.41a13.233 13.233 0 0 0-4.02 2.127 14.18 14.18 0 0 1 3.989-.875c.246-.371.512-.736.797-1.094-.253-.058-.508-.11-.766-.157Zm8.955 2.681.034.033c.356-.186.719-.356 1.09-.51a10.049 10.049 0 0 0-.229-.216c-.309.218-.607.45-.895.693Zm10.878-.681c.965.324 1.901.743 2.79 1.248a14.67 14.67 0 0 0-1.962-1.465c-.25-.149-.504-.29-.764-.421a9.647 9.647 0 0 1-.064.638ZM25.07 9.433c.52.067 1.03.198 1.517.408.217-.25.442-.492.672-.727-.643-.09-1.296-.13-1.949-.121-.083.146-.164.292-.24.44Zm13.893-.265c1.05 0 2.156.243 3.313.728.061-.192.118-.384.169-.575a12.594 12.594 0 0 0-4.671-.191c.014.046.03.092.043.138a6.46 6.46 0 0 1 1.146-.1ZM19.81 6.002a13.275 13.275 0 0 0-1.704 1.602 13.587 13.587 0 0 0-2.092 3.144l.104-.15a15.79 15.79 0 0 1 5.095-4.663c-.47.003-.938.026-1.403.067Zm8.902 5.505.093.028c.036.011.07.024.104.04.39-.556.82-1.123 1.29-1.68a12.02 12.02 0 0 0-1.087-.381 14.81 14.81 0 0 0-1.177 1.168c.291.25.55.526.777.825Zm-10.959.158c.104.013.207.027.31.043a13.07 13.07 0 0 1 1.787-1.154c1.02-.546 2.236-.976 3.479-1.121.041-.095.084-.189.128-.282a12.16 12.16 0 0 0-4.08 1.41c-.57.32-1.112.691-1.624 1.104Zm18.556 1.101c.095.132.188.267.278.402a8.474 8.474 0 0 0 .056-1.598l-.076-.186a5.318 5.318 0 0 0-.73.52c.168.283.326.57.472.862Zm-15.179-.15c.43.197.847.42 1.248.668.014-.28.04-.56.077-.84-.443.039-.886.097-1.325.173Zm2.925-.236a7.845 7.845 0 0 0-.102 1.53c.239-.515.503-1.018.79-1.507-.229-.013-.458-.02-.688-.023Zm5.73 1.775c.086.564.112 1.171.078 1.821a19.327 19.327 0 0 1 2.9-4.632 7.499 7.499 0 0 0-.056-.043l-.043-.032a13.262 13.262 0 0 0-2.88 2.886ZM43.7 10.6c.393.223.791.472 1.194.747 2.218 1.512 4.095 3.354 5.553 5.4a14.433 14.433 0 0 0-.576-3.001c-1.574-1.822-3.653-3.2-5.914-3.991-.077.282-.163.564-.257.845Zm-18.735 4.941c.354.433.672.894.955 1.377a33.216 33.216 0 0 1 1.947-3.736 3.974 3.974 0 0 0-.16-.324c-.41-.106-.823-.194-1.24-.264a15.67 15.67 0 0 0-1.502 2.947Zm-7.967-9.054c-3.308.855-6.265 2.67-8.253 5.206a12.955 12.955 0 0 0-2.49 5.49l.15-.188c1.997-2.477 4.36-4.19 6.833-4.952.209-.064.42-.122.632-.172a15.279 15.279 0 0 1 3.064-5.312c.02-.025.043-.048.064-.072Zm21.28 10.295c.068.232.131.467.188.702L40.2 14.41c.537-.953 1.077-1.98 1.523-3.032-1.132-.479-2.374-.765-3.575-.569.017.134.032.267.044.4.345.956.527 1.95.534 2.953.006.88-.151 1.767-.45 2.621Zm-10.137.392a11.584 11.584 0 0 0-.668 2.634c.279-.846.52-1.744.668-2.634Zm10.68 2.88c.006.162.01.325.01.488 1.646-1.954 3.546-3.472 5.967-3.533 2.147-.056 3.957 1.07 5.572 2.626-1.458-2.694-3.648-5.14-6.361-6.99a15.276 15.276 0 0 0-.88-.557 32.268 32.268 0 0 1-1.56 3.094l-2.748 4.872Zm-4.155-6.86c-.753 1.05-1.244 2.23-1.534 3.083-.359 1.055-.775 2.618-.84 4.337 1.422-1.302 2.713-2.917 3.517-4.726a11.83 11.83 0 0 0-.852-2.317 11.088 11.088 0 0 0-.29-.376Zm-4.68 8.05c.242.01.485.005.729-.016-.023-1.613.248-3.337.814-5.108a17.482 17.482 0 0 0-1.003 2.596 16.541 16.541 0 0 0-.54 2.528Zm22.542-.812c.174.408.334.821.477 1.237a14.326 14.326 0 0 0-.383-2.537c-.011.436-.043.87-.094 1.3ZM15.282 17.52c-.066 1.527.256 3.032 1.138 4.309.44-.135.89-.24 1.344-.312 1.608-.395 3.267-.313 4.694.213a12.068 12.068 0 0 1-.038-1.677c.05-1.053.209-2.097.463-3.117a10.086 10.086 0 0 1-.4-1.657 9.655 9.655 0 0 0-3.989-1.9c-1.324 1.133-2.414 2.555-3.212 4.141Zm8.77 1.799c-.028.269-.049.539-.062.81-.032.675.002 1.367.1 2.053a34.03 34.03 0 0 1 .593-2.037 9.063 9.063 0 0 1-.63-.826Zm4.105 3.184-.122.31c.083-.012.166-.023.25-.032.002-.078.006-.157.01-.236a9.533 9.533 0 0 1-.13-.039l-.008-.003Zm-14.198-.94c-.081.486-.137.979-.166 1.473.212-.133.429-.26.648-.378a12.995 12.995 0 0 1-.482-1.095Zm11.435 1.906.04.03c.15-.059.3-.114.452-.167.018-.253.025-.506.023-.76a9.122 9.122 0 0 1-.08-.801c-.16.562-.306 1.128-.435 1.698Zm7.097-.298c.702.219 1.377.51 2.017.865a9.09 9.09 0 0 0 1.506-3.727c-.31.303-.643.587-.997.848a8.771 8.771 0 0 1-2.418 1.27l-.208.17c.027.191.06.383.1.574Zm-26.47-2.838a11.97 11.97 0 0 0 .936 4.163c.775-3.632 2.69-7.032 5.486-9.473.265-.232.538-.454.818-.668.038-.237.08-.473.13-.708-2.062.716-4.048 2.21-5.763 4.335a18.17 18.17 0 0 0-1.608 2.351Zm11.665 2.837c1.384 1.094 3.273 1.713 5.258 1.667l.16-.11a12.576 12.576 0 0 1-.289-.957c-1.298-.597-2.682-.874-4.043-.786a8.19 8.19 0 0 0-.703.075c-.128.033-.255.07-.383.11Zm12.437 3.094c.615.167 1.214.106 1.784-.11l-.024-.045c-.274-.52-.5-1.07-.678-1.647a8.182 8.182 0 0 0-1.312-.168l-.018.011c.04.663.123 1.318.248 1.959Zm-11.615-.769c.63.579 1.317 1.088 2.047 1.517.208-.247.427-.486.654-.716a9.985 9.985 0 0 1-2.701-.8ZM8.209 26.663l.012.015c.328.434.7.841 1.11 1.217a12.85 12.85 0 0 1 2.103-2.932 11.998 11.998 0 0 1-.313-2.615c-.01-1.477.202-2.937.61-4.33a16.18 16.18 0 0 0-3.522 8.645Zm13.823 1.08c.344.14.695.262 1.049.365l.033-.033c.037-.494.086-.987.145-1.479-.437.35-.848.734-1.227 1.147Zm22.42.098a22.6 22.6 0 0 1 1.577.338 11.1 11.1 0 0 0 3.383-3.44c.332-.991.592-2.007.774-3.037-1.521-1.698-3.278-3.172-5.349-3.122-2.495.063-4.464 2.356-6.22 4.823a100.4 100.4 0 0 0-.2.283c-.059.214-.123.427-.194.638a9.465 9.465 0 0 1-.243.646c1.592-.073 3.273.422 4.755 1.404.628.416 1.203.91 1.716 1.467Zm-17.8-.202c.288.277.597.525.926.736l.07-.012a10.997 10.997 0 0 0-1.01-1.532 8.1 8.1 0 0 1-.06.13c.034.224.058.45.074.678Zm14.12 2.124a8.295 8.295 0 0 0 1.944-.191 1.912 1.912 0 0 0-.222-.451l-.687-.099c-.942-.134-1.858-.265-2.708-.433.605.326 1.168.72 1.674 1.174Zm-19.743-.745c-.192.288-.37.586-.532.891.404-.18.79-.39 1.157-.63-.21-.08-.419-.168-.625-.261Zm-9.89.198c.776.448 1.618.805 2.497 1.056a16.234 16.234 0 0 1-.627-1.574c-.26-.395-.495-.81-.702-1.241a22.02 22.02 0 0 0-.503.707c-.231.337-.453.689-.664 1.052Zm-2.973-.252c.029.507.084 1.013.165 1.515.095-.362.206-.72.334-1.07-.171-.144-.337-.292-.499-.445Zm6.264-.996c.926 1.334 2.195 2.327 3.744 2.616.11-.016.219-.035.327-.055a11.39 11.39 0 0 1 1.119-2.252 13.846 13.846 0 0 1-4.2-3.96c-.523.365-1.033.795-1.532 1.293a13.538 13.538 0 0 0 .542 2.358Zm31.568 2.068c.113.215.22.434.319.657a21.7 21.7 0 0 0 .457-.645c-.16-.059-.324-.114-.493-.167-.094.053-.188.105-.283.155Zm3.012-.604c.28.195.538.413.767.655.244.256.48.531.705.823a14.474 14.474 0 0 0 1.89-3.937 14.569 14.569 0 0 0-.38-3.1 77.444 77.444 0 0 0-.244-.305 11.929 11.929 0 0 1-.914 1.86 23.295 23.295 0 0 1-1.824 4.004Zm-24.414.581c-.008.432-.007.865.003 1.296.14-.414.254-.837.34-1.262a11.359 11.359 0 0 1-.343-.034ZM42.07 31.27a7.184 7.184 0 0 1 .371.63c.104-.241.19-.483.255-.722-.207.037-.416.067-.626.092Zm-25.412 1c.368.501.767.984 1.193 1.444.03-.513.092-1.023.19-1.525-.454.054-.915.08-1.383.08Zm26.517 1.6.044.194a20.93 20.93 0 0 0 1.966-1.965 9.26 9.26 0 0 0-.624-1.424 9.445 9.445 0 0 1-.192.068c-.093.865-.442 1.9-1.194 3.126Zm3.753-1.405c.145.574.244 1.161.293 1.755a12.398 12.398 0 0 0 2.259-2.02 9.217 9.217 0 0 0-.843-1.031 3.364 3.364 0 0 0-.459-.4c-.39.584-.808 1.15-1.25 1.696Zm-14.196-.501a12.047 12.047 0 0 0 2.879 2.576c-.812-.974-1.364-2.123-1.537-3.352a6.99 6.99 0 0 1-.069-.936c-.375.194-.737.398-1.08.614a5.661 5.661 0 0 0-.193 1.098Zm2.853-2.065c-.02.354-.006.71.045 1.07.24 1.692 1.412 3.19 3.007 4.097a8.16 8.16 0 0 0-.272-4.04c-.98-.244-1.92-.626-2.78-1.127Zm4.5 1.407a9.715 9.715 0 0 1 .107 3.991c.271-.345.538-.693.804-1.038.16-.208.319-.425.474-.65a6.68 6.68 0 0 0-.58-1.262 6.136 6.136 0 0 0-.779-1.039l-.027-.002Zm5.529 2.645a22.298 22.298 0 0 1-2.036 1.864 9.24 9.24 0 0 0 2.108-.707 9.11 9.11 0 0 0-.072-1.157Zm-26.186 1.26c.52.432 1.068.835 1.639 1.202.824-.69 1.552-1.5 2.144-2.35a21.41 21.41 0 0 1-.105-1.07 32.95 32.95 0 0 1-.085-1.931c-1.019.643-2.166 1.066-3.382 1.161-.218.973-.284 1.98-.21 2.987Zm5.422-.779c.138.88.35 1.789.673 2.646.008-2.463.914-4.92 2.507-6.732a6.602 6.602 0 0 1-.763-.343c-.248.03-.499.052-.75.066a12.234 12.234 0 0 1-1.667 4.363ZM47.2 36.217c-.063.59-.176 1.173-.334 1.746 1.45-1.013 2.686-2.383 3.617-3.97a8.519 8.519 0 0 0-.076-.172 14.82 14.82 0 0 1-2 1.652c-.393.27-.797.519-1.207.744Zm-24.696 1.02c.546.276 1.108.522 1.684.733a13.136 13.136 0 0 1-.599-1.843c-.337.387-.7.759-1.085 1.11Zm10.571-2.652a7.588 7.588 0 0 0 2.638 3.624c.734-.218 1.458-.48 2.17-.784l.048-.105c-1.77-.53-3.432-1.474-4.855-2.735Zm-4.263-2.724c-1.383 1.833-2.005 4.3-1.607 6.616.346-.533.645-1.091.892-1.67a6.356 6.356 0 0 1 .12-2.475 6.605 6.605 0 0 1 .667-1.665 9.064 9.064 0 0 0-.072-.806Zm-19.274 2.27c1.078 2.067 2.788 3.786 5.08 4.26 1.286.267 2.557.104 3.742-.35a13.297 13.297 0 0 1-.422-2.007 17.7 17.7 0 0 1-3.32-3.932 12.606 12.606 0 0 1-4.213-1.482 17.36 17.36 0 0 0-.867 2.239c-.024.422-.024.847 0 1.272Zm19.205 4.827.023.001a.847.847 0 0 1-.01-.021l-.013.02Zm.989-2.021c.153.709.446 1.416.86 2.076a19.157 19.157 0 0 0 3.249-.347c-1.684-1.659-2.682-3.928-2.697-6.188a10.52 10.52 0 0 1-.084-.115c-.22.237-.42.485-.596.746-.001.28-.014.56-.039.837a11.246 11.246 0 0 1-.693 2.99ZM4.798 22.896c-1.44 3.728-1.65 7.834-.447 11.406a14.43 14.43 0 0 0 3.273 5.36c-.475-1.883-.416-3.905.023-5.886a13.748 13.748 0 0 1-.861-3.007 16.528 16.528 0 0 1-.185-3.655 12.529 12.529 0 0 1-1.803-4.218Zm38.52 14.717a11.026 11.026 0 0 1-.517 2.074 10.283 10.283 0 0 0 1.986-.585c.31-.676.545-1.377.697-2.094-.711.268-1.436.471-2.166.605Zm-4.797 1.932a9.559 9.559 0 0 0 2.524.313c.3-.67.518-1.363.655-2.06-.345.015-.689.014-1.03-.002a21.7 21.7 0 0 1-.927.495c-.39.432-.796.853-1.222 1.254Zm-6.675.976a7.426 7.426 0 0 0 .765.617 8.776 8.776 0 0 0 2.789-1.14l.081-.051-.05-.03a21.051 21.051 0 0 1-3.585.604Zm-3.8-.052c.078.05.158.1.24.147.62.355 1.33.57 2.083.652a9.348 9.348 0 0 1-.592-.686c-.58-.012-1.158-.05-1.732-.113Zm-17.724 1.41c.246.156.495.305.748.446a15.96 15.96 0 0 1-1.99-3.434 7.99 7.99 0 0 0 1.242 2.988Zm9.98-3.033a12.077 12.077 0 0 0 2.424 3.721 12.476 12.476 0 0 0 2.91-2.16 7.877 7.877 0 0 1-.351-.448 17.736 17.736 0 0 1-4.127-1.65c-.278.192-.564.371-.857.537Zm15.486 3.816a19.75 19.75 0 0 0 2.742.62c.452-.414.88-.87 1.273-1.368.132-.168.257-.338.376-.512a10.857 10.857 0 0 1-2.649-.513 14.484 14.484 0 0 1-1.742 1.773Zm10.147-2.35a13.651 13.651 0 0 1-2.343 3.207c2.563-.215 5.539-1.062 6.922-3.636.65-1.212.78-2.585.553-3.93-1.35 1.878-3.11 3.405-5.132 4.36Zm-5.432 3.21c.217.016.455.031.71.042.909-.717 1.71-1.54 2.373-2.437-.513.12-1.03.202-1.547.25-.29.524-.624 1.03-1.001 1.509-.173.22-.351.431-.535.636Zm-11.231-.854a10.9 10.9 0 0 0 1.35 1.298c.7-.291 1.358-.615 1.977-.972-.115-.066-.23-.134-.343-.205a8.21 8.21 0 0 1-2.984-.121Zm-14.806.986c.898.214 1.816.327 2.738.33a11.479 11.479 0 0 0 4.015-.734 13.702 13.702 0 0 1-2.335-3.734c-1.439.548-2.996.744-4.586.415-1.55-.322-2.877-1.095-3.97-2.136.83 2.203 2.261 4.253 4.138 5.86Zm9.477.015a12.747 12.747 0 0 0 2.549 1.542c.86-.179 1.675-.39 2.446-.633a11.473 11.473 0 0 1-2.3-2.975 14.178 14.178 0 0 1-2.695 2.066Zm-6.278 2.068c1.786.223 3.6.173 5.195.016.38-.037.754-.079 1.12-.126a14.015 14.015 0 0 1-1.495-1.123l-.064-.056c-1.6.698-3.34 1.096-5.12 1.107.12.062.241.123.364.182Zm14.473-.727c.642.374 1.329.695 2.05.956a15.984 15.984 0 0 0 2.675-1.395 16.92 16.92 0 0 1-2.58-.771l-.228.149c-.603.386-1.242.74-1.917 1.061Zm-2.918 1.127c.76.175 1.54.291 2.328.345a13.72 13.72 0 0 1-1.17-.734c-.376.137-.762.267-1.158.389Zm9.464.726c1.58.1 3.29.014 5.151-.257 3.509-.51 6.295-1.495 8.52-3.012 2.64-1.8 4.398-4.388 4.822-7.1.522-3.34-.854-6.503-2.874-9.51-.117.475-.255.943-.416 1.401a15.334 15.334 0 0 1-1.674 5.703c.732 2.092.815 4.437-.315 6.538-2.12 3.949-6.902 4.602-10.202 4.531a15.323 15.323 0 0 1-3.012 1.706Zm-15.774.465c1.634.242 3.34.287 5.067.128a15.42 15.42 0 0 1-1.69-.602c-1.031.196-2.121.35-3.273.464l-.104.01Zm3.053 1.792c-3.127 0-6.133-.633-8.756-1.86-2.898-.403-5.745-1.487-7.7-3.854a9.376 9.376 0 0 1-.308-.395c-2.878-1.926-5.194-4.814-6.337-8.207C1.277 30.1 1.92 24.564 4.447 19.93c-.043-3.236.985-6.557 3.061-9.205 2.712-3.46 7.041-5.706 11.703-6.238 2.817-2.073 6.262-3.063 9.515-2.648.486.063.965.157 1.433.283 2.33-1.395 4.484-2.09 6.576-2.12 2.728-.04 5.24 1.188 6.546 3.201a6.57 6.57 0 0 1 .986 2.58c.111.05.222.1.332.153 2.359.567 4.194 2.221 5.454 4.354.348.414.67.835.967 1.257 2.823 4.021 4.11 8.835 3.659 13.25 2.623 3.593 4.727 7.613 4.05 11.94-.49 3.14-2.49 6.113-5.49 8.157-2.425 1.654-5.428 2.723-9.177 3.268-3.396.494-6.342.407-8.96-.27-.737.117-1.475.184-2.21.202a24.072 24.072 0 0 1-6.929 1.027ZM40.05 125.992a.787.787 0 0 1-.732-.498 7.382 7.382 0 0 0-6.907-4.703 7.382 7.382 0 0 0-6.907 4.703.786.786 0 0 1-1.463-.576 8.945 8.945 0 0 1 8.37-5.699 8.945 8.945 0 0 1 8.37 5.699.786.786 0 0 1-.731 1.074ZM21.781 111.045a7.919 7.919 0 0 1-7.41-5.046.785.785 0 1 1 1.461-.576 6.357 6.357 0 0 0 5.95 4.051c2.644 0 4.979-1.59 5.948-4.051a.786.786 0 1 1 1.462.576 7.92 7.92 0 0 1-7.41 5.046ZM43.041 111.045a7.92 7.92 0 0 1-7.41-5.046.786.786 0 1 1 1.462-.576 6.357 6.357 0 0 0 5.948 4.051c2.645 0 4.98-1.59 5.949-4.051a.786.786 0 0 1 1.462.576 7.92 7.92 0 0 1-7.41 5.046ZM82.087 41.203c-.071.142-.149.28-.23.417-.84 1.402-2.17 2.553-3.796 3.269-3.707 1.632-7.817.473-9.16-2.583-.658-1.492-.566-3.202.255-4.817.813-1.589 2.241-2.898 4.026-3.683 1.785-.787 3.716-.957 5.438-.48 1.746.482 3.069 1.57 3.725 3.062.656 1.493.565 3.202-.258 4.815ZM53.999 60.765a1.007 1.007 0 1 1-.49-1.953 1.007 1.007 0 0 1 .49 1.953Zm30.6-25.368c-1.768-4.01-7.23-5.503-12.178-3.325-4.948 2.179-7.54 7.213-5.774 11.225.828 1.88 2.496 3.275 4.699 3.927l.802.239-14.498 6.98-.131.062-2.845 1.337-2.566 1.21-.143.068h-.003l-13.21 6.322-.787.376-.786.377-15.59 7.461 3.76 2.123 29.637-10.806 1.088-.398.87-.316.011-.066-.494-4.264s17.613-8.587 18.682-9.187c.57-.318 1.157-.632 1.725-.937 1.288-.688 2.62-1.402 3.83-2.215a11.48 11.48 0 0 0 1.563-1.265 9.906 9.906 0 0 0 2.17-3.045c.886-1.965.948-4.109.167-5.883Z" fill="#3E356A"/></svg>