<svg width="21" height="20" fill="none" xmlns="http://www.w3.org/2000/svg"><path d="M6.57 1.388c-1.5.128-3.057.65-4.06 1.788-.92 1.044-1.348 2.586-.68 3.86.586 1.117 2.014 1.94 3.294 1.441 1.134-.441 1.92-1.784 1.36-2.918-.508-1.03-1.882-1.367-2.95-1.086-1.316.346-2.1 1.615-2.373 2.837-.275 1.236-.157 2.658.57 3.737.362.539.881.965 1.515 1.17.728.235 1.546.17 2.25-.112.693-.277 1.281-.755 1.74-1.326.45-.56.814-1.207.991-1.898.17-.66.171-1.397-.198-1.996-.309-.5-.838-.822-1.428-.912a3.117 3.117 0 0 0-1.76.27c-.602.276-1.065.74-1.405 1.29-.38.614-.598 1.31-.744 2.009-.144.684-.24 1.385-.297 2.081-.104 1.278-.038 2.709.81 3.76.94 1.165 2.593 1.422 4.002 1.062.788-.201 1.522-.572 2.198-1.008.609-.392 1.186-.844 1.67-1.379.472-.522.856-1.127 1.051-1.799a3.144 3.144 0 0 0-.017-1.814c-.174-.558-.502-1.088-.978-1.452a2.395 2.395 0 0 0-1.856-.449c-.755.122-1.435.551-1.985 1.051a5.983 5.983 0 0 0-1.368 1.809c-.323.674-.493 1.417-.424 2.161.066.723.343 1.422.848 1.964.99 1.06 2.582 1.342 3.987 1.174.874-.104 1.719-.352 2.55-.627.698-.23 1.395-.464 2.072-.747 1.232-.514 2.474-1.26 3.075-2.474.56-1.133.458-2.497-.14-3.596a3.95 3.95 0 0 0-1.268-1.396 4.406 4.406 0 0 0-1.922-.689c-1.39-.168-2.836.28-3.837 1.235-1.014.965-1.607 2.425-1.424 3.805.083.625.336 1.275.858 1.678.623.48 1.442.453 2.163.219.717-.233 1.393-.628 1.98-1.087.578-.452 1.082-1.013 1.416-1.66.345-.667.522-1.43.45-2.177a3.302 3.302 0 0 0-.83-1.883 4.07 4.07 0 0 0-1.68-1.11c-.705-.25-1.47-.295-2.21-.185-1.506.224-2.857 1.09-3.774 2.252-.869 1.102-1.366 2.494-1.32 3.886.043 1.352.602 2.67 1.516 3.688a5.734 5.734 0 0 0 3.66 1.86c1.42.153 2.915-.204 4.055-1.05 1.171-.869 1.962-2.233 1.844-3.69-.123-1.503-1.053-2.892-2.18-3.888-1.063-.942-2.463-1.594-3.931-1.46-.678.062-1.348.274-1.907.656-.543.37-.956.884-1.179 1.492-.43 1.173-.128 2.548.651 3.518.859 1.07 2.287 1.57 3.654 1.556a5.781 5.781 0 0 0 3.77-1.478c1.005-.898 1.688-2.147 1.777-3.479a4.879 4.879 0 0 0-1.298-3.616c-.912-.973-2.242-1.462-3.589-1.393-1.319.068-2.642.653-3.427 1.706-.734.986-1.03 2.45-.325 3.526.745 1.137 2.244 1.346 3.51 1.105 1.33-.254 2.604-1.002 3.419-2.058.4-.52.674-1.129.748-1.777a3.107 3.107 0 0 0-.384-1.846c-.632-1.146-1.882-1.94-3.194-2.137-1.61-.241-3.234.256-4.617 1.035-1.198.674-2.47 1.726-2.644 3.145-.076.61.103 1.227.49 1.713.37.467.891.797 1.456 1.002.575.209 1.212.288 1.823.213.761-.093 1.486-.379 2.149-.747.684-.38 1.31-.85 1.923-1.33.623-.487 1.263-.97 1.793-1.556.52-.572.93-1.258 1.042-2.023a2.537 2.537 0 0 0-.55-1.988c-.43-.535-1.03-.927-1.647-1.234-.73-.362-1.511-.646-2.309-.828-1.52-.347-3.142-.296-4.554.393-1.205.588-2.218 1.637-2.498 2.943-.259 1.207.07 2.58 1.03 3.428 1.102.97 2.682 1.002 4.064.721a11.748 11.748 0 0 0 2.171-.679c.715-.298 1.411-.698 1.913-1.286.47-.552.787-1.262.72-1.99-.063-.694-.452-1.32-.98-1.78-.59-.514-1.338-.812-2.098-1a15.311 15.311 0 0 0-2.489-.386c-1.641-.129-3.34.012-4.861.66-1.256.536-2.385 1.425-3.08 2.582a4.702 4.702 0 0 0-.645 1.822 4.524 4.524 0 0 0 .15 1.834c.359 1.221 1.238 2.262 2.49 2.69.76.259 1.588.29 2.38.188a7.256 7.256 0 0 0 2.157-.617c.648-.303 1.25-.725 1.708-1.267a3.595 3.595 0 0 0 .828-1.835c.089-.651-.009-1.333-.34-1.911-.32-.56-.849-.971-1.462-1.198-.612-.227-1.289-.264-1.933-.166-.69.106-1.331.394-1.895.789-.61.427-1.125.962-1.58 1.54A12.93 12.93 0 0 0 2.53 8.188c-.367.693-.65 1.44-.71 2.223-.054.702.075 1.435.439 2.05.72 1.216 2.24 1.63 3.604 1.479 1.399-.156 2.77-.846 3.6-1.966.82-1.107 1-2.673.304-3.882-.658-1.144-2.035-1.705-3.348-1.613-1.392.097-2.58.93-3.315 2.053-.845 1.296-1.023 2.867-.77 4.358.13.779.372 1.545.702 2.266.284.62.652 1.216 1.139 1.709.488.494 1.106.87 1.803 1.011.835.169 1.7.025 2.503-.22 1.347-.413 2.715-1.093 3.56-2.227.4-.535.644-1.16.7-1.818a3.787 3.787 0 0 0-.332-1.877 3.583 3.583 0 0 0-1.232-1.479 3.875 3.875 0 0 0-1.921-.643 4.036 4.036 0 0 0-2 .374 3.554 3.554 0 0 0-1.44 1.27 4.063 4.063 0 0 0-.386 3.62c.484 1.25 1.608 2.183 2.894 2.61 1.348.447 2.815.283 4.07-.35 1.268-.64 2.33-1.74 2.815-3.053.243-.658.341-1.38.2-2.071a2.648 2.648 0 0 0-.982-1.588c-.944-.713-2.293-.781-3.37-.33-1.22.509-1.924 1.715-2.083 2.954-.167 1.307.257 2.71 1.203 3.668.492.498 1.126.844 1.836.927.81.094 1.617-.163 2.328-.518.678-.338 1.31-.777 1.892-1.254a9.815 9.815 0 0 0 1.518-1.546c.878-1.124 1.45-2.464 1.518-3.88.065-1.375-.341-2.79-1.278-3.843-.852-.956-2.16-1.519-3.46-1.529a4.042 4.042 0 0 0-1.858.423 3.413 3.413 0 0 0-1.429 1.372c-.322.58-.463 1.257-.325 1.908.137.643.557 1.196 1.101 1.575.544.379 1.225.58 1.895.543a3.372 3.372 0 0 0 1.811-.678 3.775 3.775 0 0 0 1.21-1.525c.27-.625.332-1.31.23-1.978-.21-1.396-1.14-2.629-2.368-3.36-1.309-.779-2.913-1.032-4.427-.888-.8.076-1.595.265-2.305.637a4.225 4.225 0 0 0-1.467 1.271c-.73 1.01-1.004 2.306-.812 3.518.203 1.281.986 2.393 2.06 3.146a6.046 6.046 0 0 0 3.815 1.07c1.398-.093 2.723-.673 3.788-1.545 1.12-.916 1.962-2.17 2.32-3.553.191-.736.242-1.506.106-2.255a4.426 4.426 0 0 0-.848-1.898C16.169 1.738 14.865 1 13.468.71c-1.633-.338-3.383-.131-4.95.396-1.296.436-2.633 1.211-3.169 2.5-.432 1.038-.29 2.437.644 3.183 1.202.96 2.877.387 4.015-.37.615-.409 1.174-.918 1.572-1.533.372-.576.589-1.278.389-1.95-.198-.665-.756-1.152-1.404-1.404-.783-.306-1.67-.232-2.47-.037-1.327.322-2.583 1.015-3.495 2.01-.874.953-1.405 2.184-1.321 3.471.077 1.184.619 2.38 1.585 3.13.53.411 1.156.662 1.829.746a4.563 4.563 0 0 0 2.236-.31c1.402-.561 2.437-1.726 3.088-3.028.322-.644.585-1.348.58-2.073-.003-.696-.304-1.339-.9-1.74-.556-.377-1.262-.503-1.927-.537a9.36 9.36 0 0 0-2.065.133c-1.355.233-2.672.754-3.782 1.548-1.079.772-1.965 1.804-2.459 3.02a6.532 6.532 0 0 0-.35 3.642c.224 1.192.802 2.335 1.719 3.17 1.063.967 2.533 1.476 3.985 1.44a5.64 5.64 0 0 0 3.793-1.609c1.014-.995 1.62-2.346 1.614-3.75a4.701 4.701 0 0 0-.518-2.146 4.263 4.263 0 0 0-1.418-1.568 4.225 4.225 0 0 0-1.986-.7 3.925 3.925 0 0 0-1.976.37c-1.232.574-2.15 1.709-2.549 2.965-.492 1.554-.273 3.247.272 4.76.46 1.276 1.177 2.492 2.178 3.444 1.015.965 2.322 1.6 3.754 1.657 1.554.063 3.1-.502 4.311-1.43 1.11-.85 1.961-2.032 2.377-3.346a5.591 5.591 0 0 0-.187-3.922c-.52-1.199-1.456-2.249-2.666-2.83-1.252-.602-2.728-.65-4.043-.214-1.343.444-2.464 1.368-3.109 2.597a5.673 5.673 0 0 0-.478 4.024c.329 1.273 1.146 2.389 2.215 3.181 1.062.787 2.393 1.252 3.735 1.222 1.357-.029 2.672-.544 3.717-1.373 1.042-.826 1.808-1.982 2.07-3.268.262-1.276.058-2.62-.523-3.788-.608-1.226-1.665-2.273-2.987-2.764-.707-.262-1.496-.337-2.226-.118-.657.198-1.26.622-1.574 1.227-.615 1.188-.002 2.656 1.04 3.411 1.22.886 2.895.962 4.347.734.743-.116 1.481-.343 2.12-.735A3.816 3.816 0 0 0 19.5 10.7c.609-1.14.642-2.537.201-3.737-.473-1.29-1.496-2.326-2.68-3.04-1.338-.808-2.878-1.208-4.432-1.384a23.786 23.786 0 0 0-2.626-.131c-.823-.002-1.652 0-2.474.046-.692.039-1.404.132-2.026.445-.588.296-1.035.8-1.212 1.421-.172.602-.1 1.258.127 1.836a3.576 3.576 0 0 0 1.213 1.557c1 .748 2.259 1.072 3.478 1.303.17.032.242-.219.072-.251-1.36-.258-2.815-.633-3.814-1.626-.811-.807-1.23-2.202-.61-3.227.695-1.152 2.28-1.196 3.495-1.222 1.666-.034 3.348-.066 4.998.193 1.438.226 2.842.682 4.041 1.5 1.071.729 1.957 1.763 2.305 3.002.323 1.151.21 2.454-.46 3.472-.764 1.164-2.173 1.677-3.533 1.822-1.359.144-2.953.012-4-.94-.878-.8-1.311-2.25-.48-3.23.416-.49 1.05-.788 1.697-.854.745-.076 1.492.138 2.138.49 1.131.617 1.988 1.65 2.447 2.822.449 1.145.54 2.426.183 3.606-.36 1.186-1.173 2.22-2.21 2.93-1.04.713-2.309 1.114-3.587 1.052-1.261-.06-2.485-.57-3.443-1.361-.974-.805-1.68-1.897-1.926-3.12a5.41 5.41 0 0 1 .638-3.771c.663-1.129 1.76-1.954 3.042-2.322 1.259-.361 2.642-.27 3.8.347 1.113.593 1.97 1.6 2.428 2.744a5.37 5.37 0 0 1 .084 3.729c-.416 1.238-1.239 2.34-2.295 3.142-1.152.874-2.628 1.395-4.098 1.336-1.35-.055-2.584-.657-3.544-1.562-.944-.891-1.634-2.028-2.083-3.224-.536-1.433-.788-3.028-.383-4.523.332-1.224 1.152-2.333 2.309-2.942a3.697 3.697 0 0 1 1.82-.436 3.887 3.887 0 0 1 1.893.575c.578.35 1.06.838 1.393 1.415.353.612.539 1.308.566 2.007.052 1.338-.477 2.64-1.415 3.615a5.358 5.358 0 0 1-3.508 1.641c-1.38.087-2.804-.339-3.854-1.22-.9-.754-1.484-1.8-1.745-2.918A6.296 6.296 0 0 1 1.6 8.265C1.996 7.1 2.773 6.087 3.744 5.308c1.01-.81 2.231-1.362 3.503-1.654a9.434 9.434 0 0 1 1.948-.24c.64-.01 1.3.033 1.901.267.605.236 1.058.7 1.19 1.328.138.66-.054 1.362-.314 1.972-.536 1.257-1.43 2.443-2.679 3.105-1.207.64-2.76.766-3.955.03-.98-.604-1.576-1.675-1.75-2.77-.19-1.19.18-2.366.917-3.321.772-1 1.906-1.729 3.119-2.125.738-.242 1.553-.404 2.33-.267.64.112 1.266.449 1.597 1.008.737 1.245-.426 2.634-1.407 3.362-1.021.757-2.6 1.479-3.816.704-.948-.606-1.12-1.901-.78-2.877.43-1.228 1.694-1.994 2.887-2.42C9.902.886 11.554.651 13.104.906c1.355.223 2.637.855 3.528 1.884.428.494.745 1.075.91 1.7.183.695.182 1.428.042 2.13-.269 1.342-1.01 2.574-2.035 3.507-.963.878-2.186 1.497-3.5 1.68a5.784 5.784 0 0 1-3.69-.752c-1.067-.629-1.912-1.617-2.223-2.802a4.535 4.535 0 0 1 .443-3.358 3.948 3.948 0 0 1 1.15-1.282c.615-.432 1.343-.683 2.086-.813 1.425-.25 2.983-.112 4.299.492 1.254.575 2.263 1.61 2.66 2.913.188.615.233 1.279.077 1.904a3.394 3.394 0 0 1-.905 1.57 3.293 3.293 0 0 1-1.592.892 2.76 2.76 0 0 1-1.801-.212c-.558-.271-1.04-.725-1.267-1.295-.23-.576-.185-1.21.05-1.777.479-1.159 1.658-1.875 2.919-1.946a4.51 4.51 0 0 1 3.336 1.228c.953.923 1.402 2.247 1.414 3.534.013 1.344-.453 2.63-1.225 3.736-.784 1.123-1.861 2.058-3.047 2.77-.65.39-1.379.726-2.151.784a2.716 2.716 0 0 1-1.905-.582c-1.006-.798-1.505-2.098-1.468-3.338.035-1.171.577-2.395 1.658-2.998.942-.524 2.205-.56 3.145-.012.512.298.882.77 1.06 1.321.203.63.158 1.31-.026 1.937-.375 1.275-1.333 2.359-2.496 3.032-1.15.664-2.53.915-3.833.576-1.242-.322-2.36-1.133-2.918-2.27-.52-1.06-.467-2.371.092-3.407.282-.525.696-.98 1.218-1.29a3.662 3.662 0 0 1 1.837-.498 3.704 3.704 0 0 1 1.847.462c.543.308.975.766 1.266 1.305.588 1.085.57 2.419-.108 3.461-.72 1.108-1.987 1.783-3.227 2.21-.757.26-1.564.449-2.372.369a3.188 3.188 0 0 1-1.818-.828c-.486-.44-.855-.987-1.145-1.564a8.78 8.78 0 0 1-.723-2.075c-.31-1.425-.234-2.957.496-4.254.618-1.097 1.673-1.981 2.971-2.18 1.195-.182 2.544.228 3.25 1.218.765 1.072.69 2.562-.01 3.645-.712 1.106-1.987 1.805-3.295 2.016-1.246.202-2.73-.073-3.48-1.15-.389-.56-.541-1.245-.52-1.914.024-.734.27-1.448.6-2.104.33-.656.735-1.282 1.175-1.873.417-.558.89-1.083 1.447-1.515.519-.403 1.117-.718 1.769-.862a3.743 3.743 0 0 1 1.82.04c.578.164 1.103.502 1.437.995.354.523.477 1.158.42 1.776a3.29 3.29 0 0 1-.697 1.727c-.418.532-.98.944-1.59 1.248a6.882 6.882 0 0 1-2.01.625c-.75.117-1.534.112-2.266-.1a3.498 3.498 0 0 1-1.594-.968 3.939 3.939 0 0 1-.858-1.477 4.349 4.349 0 0 1-.196-1.722c.053-.6.25-1.183.545-1.712.623-1.117 1.662-1.978 2.832-2.526 1.408-.658 3.01-.833 4.555-.754.804.04 1.607.145 2.395.306.746.152 1.495.376 2.123.81.539.372.984.915 1.138 1.547.162.667-.06 1.35-.459 1.899-.428.589-1.063.998-1.726 1.302a11.2 11.2 0 0 1-2.078.705c-1.297.308-2.809.38-3.927-.448-.96-.71-1.35-1.983-1.172-3.113.196-1.252 1.08-2.271 2.197-2.878 1.29-.7 2.806-.818 4.24-.545.793.151 1.564.409 2.296.741.594.27 1.175.603 1.634 1.065.477.48.759 1.093.73 1.766-.032.723-.38 1.408-.844 1.962-.484.58-1.085 1.052-1.679 1.52-.58.459-1.168.914-1.802 1.303-.623.381-1.294.696-2.017.848a3.772 3.772 0 0 1-1.766-.05c-.543-.146-1.06-.413-1.453-.81-.4-.403-.629-.932-.624-1.494.005-.633.303-1.23.704-1.716.436-.53.988-.965 1.581-1.32 1.291-.773 2.81-1.313 4.346-1.184 1.273.106 2.505.763 3.199 1.818.333.507.522 1.093.506 1.696-.017.606-.238 1.186-.58 1.69-.704 1.038-1.892 1.78-3.125 2.083-1.152.284-2.605.215-3.386-.78-.752-.956-.51-2.331.131-3.277.69-1.016 1.933-1.603 3.164-1.697 1.266-.097 2.526.313 3.418 1.202a4.617 4.617 0 0 1 1.33 3.364c-.034 1.258-.64 2.45-1.553 3.328a5.503 5.503 0 0 1-3.502 1.535c-1.294.067-2.667-.333-3.544-1.296-.787-.863-1.12-2.138-.795-3.252a2.8 2.8 0 0 1 1.012-1.45c.502-.378 1.123-.604 1.751-.682 1.38-.17 2.715.395 3.742 1.262.546.46 1.025 1 1.408 1.594.399.617.702 1.307.798 2.034a3.537 3.537 0 0 1-.31 1.987 4.527 4.527 0 0 1-1.268 1.575c-1.05.84-2.45 1.213-3.798 1.122a5.46 5.46 0 0 1-3.532-1.621c-.9-.92-1.485-2.144-1.594-3.41-.112-1.316.286-2.641 1.045-3.73.799-1.147 2.015-2.024 3.41-2.352.701-.165 1.446-.183 2.146-.002.623.16 1.206.471 1.67.904.48.446.816 1.013.945 1.647.141.695.031 1.426-.244 2.078-.539 1.28-1.766 2.25-3.054 2.778-.65.267-1.447.427-2.084.042-.531-.32-.793-.926-.89-1.504-.218-1.29.326-2.683 1.25-3.61.926-.931 2.268-1.375 3.59-1.255a4.17 4.17 0 0 1 1.82.6c.514.32.931.766 1.229 1.281.579 1.005.717 2.29.222 3.354-.544 1.166-1.702 1.885-2.867 2.387-.623.27-1.268.486-1.913.703-.79.265-1.59.52-2.416.654-1.34.218-2.874.065-3.91-.87-1.084-.977-1.19-2.557-.647-3.828.28-.654.715-1.244 1.223-1.75.505-.503 1.126-.94 1.837-1.113.613-.149 1.25-.051 1.764.31.451.32.765.81.933 1.32.18.547.197 1.126.044 1.68-.176.636-.533 1.21-.975 1.704-.454.508-.992.94-1.566 1.315-.64.42-1.33.783-2.074.992-1.327.373-2.897.188-3.818-.899-.823-.97-.878-2.345-.79-3.54.049-.657.138-1.316.265-1.963.13-.665.317-1.331.652-1.93.3-.536.71-1.004 1.27-1.295a2.871 2.871 0 0 1 1.617-.316c.537.059 1.035.326 1.322.777.357.56.34 1.257.171 1.874-.175.644-.518 1.255-.945 1.775-.44.536-1.005.998-1.671 1.245-.676.25-1.44.295-2.123.043-.57-.212-1.027-.638-1.334-1.143-.635-1.045-.72-2.382-.428-3.543.286-1.133 1.04-2.291 2.29-2.552.987-.206 2.251.169 2.585 1.183.357 1.082-.57 2.271-1.67 2.462-1.253.217-2.463-.781-2.784-1.907-.37-1.296.287-2.691 1.306-3.531.94-.775 2.177-1.147 3.39-1.25.171-.015.173-.276 0-.26Z" stroke="#3E356A" stroke-width=".3" stroke-miterlimit="10"/></svg>