<svg width="59" height="60" fill="none" xmlns="http://www.w3.org/2000/svg"><path fill-rule="evenodd" clip-rule="evenodd" d="M34.661.168C24.175-.501 14.69 3.038 7.501 10.88-3.692 23.093-2.507 44.722 12.055 53.56c5.165 3.137 9.308 5.242 15.16 6.03 13.87 1.87 27.769-9.088 31.026-22.58C61.993 21.47 51.476 1.237 34.661.166v.001ZM49.32 12.005c-.744.741-1.488 1.484-2.245 2.212-2.36 2.27-4.84 4.415-7.083 6.804-9.856 10.5-9.818 10.468-18.953 21.559a393.55 393.55 0 0 0-5.469 6.82c-.418.53-.805 1.085-1.193 1.639 5.745 3.327 11.646 6.043 18.418 5.27 10.29-1.179 19.728-9.869 22.211-20.01 2.018-8.243-.624-17.697-5.687-24.294Zm-1.2-1.452C44.608 6.6 39.975 3.873 34.454 3.52c-9.466-.603-17.996 2.516-24.49 9.604C.654 23.29.63 42.14 12.77 50.073c.444-.634.886-1.267 1.364-1.874a384.411 384.411 0 0 1 5.47-6.82c9.22-11.196 9.152-11.126 19.075-21.697 2.252-2.399 4.743-4.555 7.113-6.834.786-.756 1.558-1.526 2.33-2.296Zm-5.386 15.61a.959.959 0 0 0-.103-.971.925.925 0 0 0-.898-.359c-2.64.46-5.283 4.004-6.448 6.062-2.616 4.62-3.247 11.903 1.545 15.42 1.808 1.327 3.523 2.066 5.697 2.545 1.122.247 2.591-.813 1.959-2.054-.744-1.458-2.12-2.03-2.854-3.71-2.33-5.331-1.235-11.843 1.102-16.933ZM39.95 28.08c-1.177 1.113-2.24 2.326-3.054 3.762-2.332 4.12-2.91 10.748 1.805 13.497.966.564 1.993 1.048 3.062 1.37-4.388-4.72-3.795-12.962-1.813-18.63v.001Zm6.008 2.049c.012-.005.023-.01.034-.013a.55.55 0 0 1 .655.276c.6.5.922 1.34 1.226 2.038l.185.026s1.26-.104 1.627.314c.597.424-.134 1.08-.394 1.424l-.668.881c.084.125.168.249.245.38.064.108.128.218.178.335.145.336.21.711.405 1.02a.565.565 0 0 1-.007.612.526.526 0 0 1-.213.313.543.543 0 0 1-.578.047l-.21-.056c-.21-.043-.421-.087-.631-.139a11.755 11.755 0 0 1-1.846-.572c-.82.421-1.497 1.069-2.345 1.447-.4.374-1.03-.03-.909-.543.136-.952.982-1.74 1.338-2.65-.303-.488-.43-.709-.748-1.154-.079-.111-.164-.218-.248-.324-.302-.297-.56-.922.085-1.093.328-.291 1.284-.242 1.284-.242.138-.26.282-.515.434-.767l.658-1.05c.034-.243.197-.463.443-.51Zm-9.324 3.174c-.249.351-.486 1.103-.591 1.47-.171.604-.34 1.383-.388 2.013-.03.37-.046 1.053.152 1.424.304.574 1.178.108.88-.469-.208-.4-.053-.91.016-1.355.159-1.018.405-1.61.737-2.495.045-.12.108-.249.087-.376-.07-.435-.639-.57-.893-.212Zm9.582-1.697-.416.664c-.2.334-.3.768-.618.988-.107.198-.248.25-.454.29a3.255 3.255 0 0 1-.433.047c.285.405.51.793.78 1.222.02.033.037.068.05.104a.53.53 0 0 1 .084.416.557.557 0 0 1-.084.217c-.02.057-.04.114-.065.17-.104.228-.21.455-.318.682-.018.038-.038.074-.06.111.346-.249.683-.478 1.083-.636a.546.546 0 0 1 .499.051c.345.133.694.259 1.047.37.239.075.484.128.725.19l.113.024a2.114 2.114 0 0 0-.207-.454l-.419-.642c.021.027.024.006.014-.01a.56.56 0 0 1-.109-.197.505.505 0 0 1 .211-.675l.703-.929c-.131-.012-.262-.024-.394-.039-.394-.045-1.044-.06-1.058-.627a12.577 12.577 0 0 0-.674-1.337Zm-30.082 2.077.021-.044-.074.143c-.493.803-1.59.456-1.736-.395-.06-.359.314-.938.417-1.196.093-.228.175-.462.25-.697.252-.784 1.347-.87 1.716-.136.25.503-.059 1.091-.24 1.545l-.208.49-.146.29a2.377 2.377 0 0 1-.02.04l.02-.04Zm6.377-2.33c.127.2.424.642.501.776.413.712-.252 1.6-1.036 1.393a.925.925 0 0 1-.569-.434c-.228-.345-.81-.986-.641-1.506.142-.433.704-.588 1.101-.594.12-.002.362.013.466.117a.966.966 0 0 1 .178.249Zm4.109-1.7c-.316-.328-.632-.659-.93-1.006a1.165 1.165 0 0 1-.204-.313c-.247-.611.22-1.3.867-1.299.73.002 1.433 1.108 1.738 1.455.245.28.452.653.433 1.038-.034.669-.792 1.004-1.35.777a.941.941 0 0 1-.554-.651Zm-8.823-13.69c1.62-.357 3.215-.54 4.858-.164 3.027.693 4.038 3.49 3.732 6.275-.425 3.867-3.728 8.196-7.795 8.074-2.544-.077-4.537-1.96-5.293-4.331-.572-1.797.008-4.128.466-5.807.492-1.806 1.838-4.25 4.032-4.047Zm-5.65 11.852-1.03.623a.925.925 0 0 1-1.272-.345.954.954 0 0 1 .34-1.291l.995-.6a.512.512 0 0 1 .05-.028l.004-.004a.922.922 0 0 1 1.316.056.93.93 0 0 1 .249.775.972.972 0 0 1-.23.528c-.087.1-.5.329-.5.329s.052-.026.076-.04l.003-.003Zm5.54-9.892c.122.02.247.016.367-.011 1.544-.353 3.732-.769 5.175.246 1.461 1.027 1.521 2.752 1.084 4.353-.591 2.165-2.271 5.22-4.697 5.64-1.89.326-3.856-.835-4.415-2.718-.47-1.578-.008-3.346.415-4.87.22-.784.922-2.83 2.072-2.64Zm10.253 6.08c.502.061 1.004.125 1.51.149a.877.877 0 0 0 .35-.06c.46-.175.688-.713.517-1.175-.135-.364-.446-.537-.808-.584-.412-.054-1.499-.34-1.995.045-.622.483-.349 1.52.426 1.625Zm-16.405-2.087c-.482-.071-1.215-.175-1.679.053-.697.343-.635 1.417.096 1.674.256.09.614.032.864.038.396.01.78.128 1.13-.137.625-.476.364-1.517-.41-1.628Zm8.97-2.837c-.342.018-.44-.385-.23-.595.146-.148.515-.073.674-.007.22.09.582.328.764.48.504.425.886.915 1.157 1.523.105.238.262.487.237.748a.333.333 0 0 1-.485.26c-.215-.116-.288-.575-.349-.715a3.65 3.65 0 0 0-.25-.48c-.317-.506-.788-.95-1.33-1.197l-.189-.017Zm-8.835-1.305c.254.129.508.258.75.408.105.067.208.142.287.238.415.507.174 1.307-.445 1.5-.515.164-1.082-.236-1.479-.484-.282-.177-.627-.392-.701-.755-.148-.717.443-1.342 1.148-1.164a.922.922 0 0 1 .44.257Zm17.854-1.004c.538-.176 1.222.464 1.274.986.067.692-.726.784-1.185.95-.448.162-.916.492-1.412.285-.597-.25-.767-1.07-.306-1.536.086-.089.195-.156.305-.21.253-.123.78-.317.78-.317l.544-.158Zm-6.227-2.89.243-.33c.405-.562 1.191-2.212 2.205-1.467 1.02.75-.3 2.026-.705 2.586-.109.15-.226.342-.368.482-.54.882-1.977.286-1.715-.731.07-.274.145-.34.34-.54Zm-9.452.56a.553.553 0 0 1-.232-.266c-.096-.228-.142-.35-.09-.585.106-.497.78-.497 1.023-.125.218.333.401.688.618 1.02.268.407-.096.954-.568.858-.39-.08-.596-.642-.752-.901Zm3.854-3.15c.144-1.176 1.673-1.306 1.773-.14.03.021.048.04.05.053.002.041.003.083 0 .122.142.77.11 1.562.16 2.343.063.999-1.325 1.387-1.762.484-.386-.796-.286-1.866-.243-2.704-.014-.078-.034-.105.023-.159Z" fill="#3E356A"/></svg>